<svg width="50" height="50" viewBox="0 0 50 50" fill="none" xmlns="http://www.w3.org/2000/svg">
<path d="M37.4603 0H12.5C5.63492 0 0 5.63492 0 12.5397V37.5C0 44.3651 5.63492 50 12.5 50H37.4603C44.3651 50 50 44.3651 50 37.4603V12.5397C50 5.63492 44.3651 0 37.4603 0ZM31.7064 25H26.9841V40.4762H21.0317V25H17.8571V18.6508H20.6349V15.9524C20.6349 13.4127 21.9048 9.40476 27.2619 9.40476H32.1429V14.6825H28.6905C28.1349 14.6825 27.381 15.0397 27.381 16.2698V18.6508H32.2619L31.7064 25Z" fill="white"/>
</svg>
